<svg width="29" height="29" viewBox="0 0 29 29" xmlns="http://www.w3.org/2000/svg">
<path d="M21.2832 0.625H8.26965C4.03426 0.625 0.588623 4.07064 0.588623 8.30603V21.3198C0.588623 25.555 4.03426 29.0006 8.26965 29.0006H21.2834C25.5186 29.0006 28.9643 25.555 28.9643 21.3198V8.30603C28.9643 4.07064 25.5186 0.625 21.2832 0.625V0.625ZM14.7764 22.5716C10.4982 22.5716 7.01769 19.0911 7.01769 14.8128C7.01769 10.5346 10.4982 7.05407 14.7764 7.05407C19.0547 7.05407 22.5352 10.5346 22.5352 14.8128C22.5352 19.0911 19.0547 22.5716 14.7764 22.5716ZM22.7207 8.88383C21.4564 8.88383 20.4281 7.85551 20.4281 6.59122C20.4281 5.32692 21.4564 4.29838 22.7207 4.29838C23.985 4.29838 25.0135 5.32692 25.0135 6.59122C25.0135 7.85551 23.985 8.88383 22.7207 8.88383Z"/>
<path d="M14.7766 8.7168C11.4159 8.7168 8.6814 11.4511 8.6814 14.812C8.6814 18.1728 11.4159 20.9073 14.7766 20.9073C18.1376 20.9073 20.8719 18.1728 20.8719 14.812C20.8719 11.4511 18.1376 8.7168 14.7766 8.7168Z"/>
<path d="M22.7207 5.96289C22.3739 5.96289 22.0916 6.24519 22.0916 6.59201C22.0916 6.93882 22.3739 7.22112 22.7207 7.22112C23.0677 7.22112 23.35 6.93904 23.35 6.59201C23.35 6.24498 23.0677 5.96289 22.7207 5.96289Z"/>
</svg>
