<svg width="31" height="26" viewBox="0 0 31 26" xmlns="http://www.w3.org/2000/svg">
<path fill-rule="evenodd" clip-rule="evenodd" d="M2.09436 11.1534C10.3038 7.59215 15.7689 5.22579 18.5131 4.07775C26.3238 0.821084 27.9657 0.258781 29.0212 0.235352C29.2557 0.235352 29.7717 0.28221 30.1236 0.563362C30.405 0.797655 30.4754 1.10224 30.5223 1.33653C30.5692 1.57082 30.6161 2.06284 30.5692 2.4377C30.147 6.88927 28.3175 17.6902 27.3793 22.6572C26.9805 24.7658 26.2065 25.4687 25.4559 25.539C23.8141 25.6795 22.5709 24.4612 20.9994 23.4303C18.5131 21.8137 17.1293 20.8063 14.7134 19.2131C11.9222 17.3856 13.7282 16.3781 15.3232 14.7381C15.7454 14.3163 22.9462 7.75615 23.0869 7.17042C23.1104 7.10013 23.1104 6.81898 22.9462 6.6784C22.782 6.53783 22.5475 6.58469 22.3598 6.63154C22.1018 6.6784 18.1613 9.30248 10.4914 14.4804C9.36554 15.2535 8.35696 15.6284 7.4422 15.605C6.43361 15.5815 4.51027 15.0427 3.05604 14.5741C1.29688 14.0118 -0.110443 13.7072 0.00683423 12.7232C0.0772004 12.2077 0.780862 11.6923 2.09436 11.1534Z"/>
</svg>
