<svg width="41" height="22" viewBox="0 0 41 22" xmlns="http://www.w3.org/2000/svg">
<path d="M34.0226 12.6154C33.3598 11.8454 33.5494 11.5029 34.0226 10.8146C34.0312 10.8067 39.5032 3.85157 40.0669 1.49286L40.0703 1.49129C40.3505 0.631714 40.0703 0 38.7156 0H34.2328C33.0916 0 32.5654 0.542143 32.2835 1.14871C32.2835 1.14871 30.0011 6.17414 26.7722 9.43171C25.7301 10.373 25.2483 10.6747 24.6794 10.6747C24.3993 10.6747 23.9636 10.373 23.9636 9.51343V1.49129C23.9636 0.460428 23.6442 0 22.6994 0H15.6506C14.9348 0 14.5094 0.480857 14.5094 0.928714C14.5094 1.90614 16.1238 2.13086 16.2912 4.88086V10.8476C16.2912 12.155 16.0333 12.3954 15.461 12.3954C13.9371 12.3954 10.2384 7.34957 8.04653 1.57457C7.60405 0.454143 7.17183 0.00157131 6.02208 0.00157131H1.53755C0.257967 0.00157131 0 0.543714 0 1.15029C0 2.222 1.52389 7.55071 7.08641 14.5907C10.7936 19.3961 16.0145 22 20.7638 22C23.6185 22 23.967 21.4217 23.967 20.427C23.967 15.8353 23.7091 15.4016 25.139 15.4016C25.8019 15.4016 26.9431 15.7033 29.6081 18.0211C32.6542 20.7696 33.1548 22 34.8597 22H39.3426C40.6204 22 41.2679 21.4217 40.8955 20.2809C40.043 17.8813 34.2823 12.9454 34.0226 12.6154Z"/>
</svg>
