<svg width="35" height="35" viewBox="0 0 35 35" fill="none" xmlns="http://www.w3.org/2000/svg">
<path d="M24.7917 30.625H10.2083C4.37499 30.625 2.91666 29.1667 2.91666 23.3333V11.6667C2.91666 5.83333 4.37499 4.375 10.2083 4.375H24.7917C30.625 4.375 32.0833 5.83333 32.0833 11.6667V23.3333C32.0833 29.1667 30.625 30.625 24.7917 30.625Z" stroke="#F55757" stroke-width="1.5" stroke-linecap="round" stroke-linejoin="round"/>
<path d="M20.4167 11.6667H27.7083" stroke="#F55757" stroke-width="1.5" stroke-linecap="round" stroke-linejoin="round"/>
<path d="M21.875 17.5H27.7083" stroke="#F55757" stroke-width="1.5" stroke-linecap="round" stroke-linejoin="round"/>
<path d="M24.7917 23.3333H27.7083" stroke="#F55757" stroke-width="1.5" stroke-linecap="round" stroke-linejoin="round"/>
<path d="M12.3958 16.4645C13.8536 16.4645 15.0354 15.2827 15.0354 13.8249C15.0354 12.3671 13.8536 11.1853 12.3958 11.1853C10.938 11.1853 9.75626 12.3671 9.75626 13.8249C9.75626 15.2827 10.938 16.4645 12.3958 16.4645Z" stroke="#F55757" stroke-width="1.5" stroke-linecap="round" stroke-linejoin="round"/>
<path d="M17.5 23.8146C17.2958 21.7 15.6187 20.0375 13.5042 19.8479C12.775 19.775 12.0312 19.775 11.2875 19.8479C9.17291 20.0521 7.49582 21.7 7.29166 23.8146" stroke="#F55757" stroke-width="1.5" stroke-linecap="round" stroke-linejoin="round"/>
</svg>
