<svg width="42" height="42" viewBox="0 0 42 42" fill="none" xmlns="http://www.w3.org/2000/svg">
<path d="M21 31.85C24.866 31.85 28 28.716 28 24.85C28 20.984 24.866 17.85 21 17.85C17.134 17.85 14 20.984 14 24.85C14 28.716 17.134 31.85 21 31.85Z" stroke="white" stroke-width="1.5" stroke-miterlimit="10" stroke-linecap="round" stroke-linejoin="round"/>
<path d="M21.4375 22.6625V24.29C21.4375 24.9025 21.1225 25.48 20.58 25.795L19.25 26.6" stroke="white" stroke-width="1.5" stroke-miterlimit="10" stroke-linecap="round" stroke-linejoin="round"/>
<path d="M14 38.5H28C35.035 38.5 36.295 35.6825 36.6625 32.2525L37.975 18.2525C38.4475 13.9825 37.2225 10.5 29.75 10.5H12.25C4.7775 10.5 3.5525 13.9825 4.025 18.2525L5.3375 32.2525C5.705 35.6825 6.965 38.5 14 38.5Z" stroke="white" stroke-width="1.5" stroke-miterlimit="10" stroke-linecap="round" stroke-linejoin="round"/>
<path d="M14 10.5V9.1C14 6.0025 14 3.5 19.6 3.5H22.4C28 3.5 28 6.0025 28 9.1V10.5" stroke="white" stroke-width="1.5" stroke-miterlimit="10" stroke-linecap="round" stroke-linejoin="round"/>
<path d="M37.8875 19.25C34.86 21.455 31.5 22.995 28.0175 23.87" stroke="white" stroke-width="1.5" stroke-miterlimit="10" stroke-linecap="round" stroke-linejoin="round"/>
<path d="M4.58501 19.7225C7.50751 21.7175 10.6925 23.135 14 23.94" stroke="white" stroke-width="1.5" stroke-miterlimit="10" stroke-linecap="round" stroke-linejoin="round"/>
</svg>
