<svg width="42" height="42" viewBox="0 0 42 42" fill="none" xmlns="http://www.w3.org/2000/svg">
<path d="M37.905 18.27L36.19 25.585C34.72 31.9025 31.815 34.4575 26.355 33.9325C25.48 33.8625 24.535 33.705 23.52 33.46L20.58 32.76C13.2825 31.0275 11.025 27.4225 12.74 20.1075L14.455 12.775C14.805 11.2875 15.225 9.9925 15.75 8.925C17.7975 4.69 21.28 3.5525 27.125 4.935L30.0475 5.6175C37.38 7.3325 39.62 10.955 37.905 18.27Z" stroke="white" stroke-width="1.5" stroke-linecap="round" stroke-linejoin="round"/>
<path d="M26.355 33.9325C25.27 34.6675 23.905 35.28 22.2425 35.8225L19.4775 36.7325C12.53 38.9725 8.8725 37.1 6.615 30.1525L4.375 23.24C2.135 16.2925 3.99 12.6175 10.9375 10.3775L13.7025 9.4675C14.42 9.24 15.1025 9.0475 15.75 8.925C15.225 9.9925 14.805 11.2875 14.455 12.775L12.74 20.1075C11.025 27.4225 13.2825 31.0275 20.58 32.76L23.52 33.46C24.535 33.705 25.48 33.8625 26.355 33.9325Z" stroke="white" stroke-width="1.5" stroke-linecap="round" stroke-linejoin="round"/>
<path d="M22.12 14.9275L30.6075 17.08" stroke="white" stroke-width="1.5" stroke-linecap="round" stroke-linejoin="round"/>
<path d="M20.405 21.7L25.48 22.995" stroke="white" stroke-width="1.5" stroke-linecap="round" stroke-linejoin="round"/>
</svg>
