<svg width="30" height="30" viewBox="0 0 30 30" fill="none" xmlns="http://www.w3.org/2000/svg">
<path d="M27.075 13.0499L25.85 18.2749C24.8 22.7874 22.725 24.6124 18.825 24.2374C18.2 24.1874 17.525 24.0749 16.8 23.8999L14.7 23.3999C9.48748 22.1624 7.87498 19.5874 9.09998 14.3624L10.325 9.12489C10.575 8.06239 10.875 7.13739 11.25 6.37489C12.7125 3.34989 15.2 2.53739 19.375 3.52489L21.4625 4.01239C26.7 5.23739 28.3 7.82489 27.075 13.0499Z" stroke="white" stroke-width="1.5" stroke-linecap="round" stroke-linejoin="round"/>
<path d="M18.825 24.2375C18.05 24.7625 17.075 25.2 15.8875 25.5875L13.9125 26.2375C8.95 27.8375 6.3375 26.5 4.725 21.5375L3.125 16.6C1.525 11.6375 2.85 9.0125 7.8125 7.4125L9.7875 6.7625C10.3 6.6 10.7875 6.4625 11.25 6.375C10.875 7.1375 10.575 8.0625 10.325 9.125L9.1 14.3625C7.875 19.5875 9.4875 22.1625 14.7 23.4L16.8 23.9C17.525 24.075 18.2 24.1875 18.825 24.2375Z" stroke="white" stroke-width="1.5" stroke-linecap="round" stroke-linejoin="round"/>
<path d="M15.8 10.6626L21.8625 12.2001" stroke="white" stroke-width="1.5" stroke-linecap="round" stroke-linejoin="round"/>
<path d="M14.575 15.5L18.2 16.425" stroke="white" stroke-width="1.5" stroke-linecap="round" stroke-linejoin="round"/>
</svg>
