<svg xmlns="http://www.w3.org/2000/svg" xmlns:xlink="http://www.w3.org/1999/xlink"><symbol id="instagram" viewBox="0 0 29 29">
<path d="M21.2832 0.625H8.26965C4.03426 0.625 0.588623 4.07064 0.588623 8.30603V21.3198C0.588623 25.555 4.03426 29.0006 8.26965 29.0006H21.2834C25.5186 29.0006 28.9643 25.555 28.9643 21.3198V8.30603C28.9643 4.07064 25.5186 0.625 21.2832 0.625V0.625ZM14.7764 22.5716C10.4982 22.5716 7.01769 19.0911 7.01769 14.8128C7.01769 10.5346 10.4982 7.05407 14.7764 7.05407C19.0547 7.05407 22.5352 10.5346 22.5352 14.8128C22.5352 19.0911 19.0547 22.5716 14.7764 22.5716ZM22.7207 8.88383C21.4564 8.88383 20.4281 7.85551 20.4281 6.59122C20.4281 5.32692 21.4564 4.29838 22.7207 4.29838C23.985 4.29838 25.0135 5.32692 25.0135 6.59122C25.0135 7.85551 23.985 8.88383 22.7207 8.88383Z"/>
<path d="M14.7766 8.7168C11.4159 8.7168 8.6814 11.4511 8.6814 14.812C8.6814 18.1728 11.4159 20.9073 14.7766 20.9073C18.1376 20.9073 20.8719 18.1728 20.8719 14.812C20.8719 11.4511 18.1376 8.7168 14.7766 8.7168Z"/>
<path d="M22.7207 5.96289C22.3739 5.96289 22.0916 6.24519 22.0916 6.59201C22.0916 6.93882 22.3739 7.22112 22.7207 7.22112C23.0677 7.22112 23.35 6.93904 23.35 6.59201C23.35 6.24498 23.0677 5.96289 22.7207 5.96289Z"/>
</symbol><symbol id="tg" viewBox="0 0 31 26">
<path fill-rule="evenodd" clip-rule="evenodd" d="M2.09436 11.1534C10.3038 7.59215 15.7689 5.22579 18.5131 4.07775C26.3238 0.821084 27.9657 0.258781 29.0212 0.235352C29.2557 0.235352 29.7717 0.28221 30.1236 0.563362C30.405 0.797655 30.4754 1.10224 30.5223 1.33653C30.5692 1.57082 30.6161 2.06284 30.5692 2.4377C30.147 6.88927 28.3175 17.6902 27.3793 22.6572C26.9805 24.7658 26.2065 25.4687 25.4559 25.539C23.8141 25.6795 22.5709 24.4612 20.9994 23.4303C18.5131 21.8137 17.1293 20.8063 14.7134 19.2131C11.9222 17.3856 13.7282 16.3781 15.3232 14.7381C15.7454 14.3163 22.9462 7.75615 23.0869 7.17042C23.1104 7.10013 23.1104 6.81898 22.9462 6.6784C22.782 6.53783 22.5475 6.58469 22.3598 6.63154C22.1018 6.6784 18.1613 9.30248 10.4914 14.4804C9.36554 15.2535 8.35696 15.6284 7.4422 15.605C6.43361 15.5815 4.51027 15.0427 3.05604 14.5741C1.29688 14.0118 -0.110443 13.7072 0.00683423 12.7232C0.0772004 12.2077 0.780862 11.6923 2.09436 11.1534Z"/>
</symbol><symbol id="vk" viewBox="0 0 41 22">
<path d="M34.0226 12.6154C33.3598 11.8454 33.5494 11.5029 34.0226 10.8146C34.0312 10.8067 39.5032 3.85157 40.0669 1.49286L40.0703 1.49129C40.3505 0.631714 40.0703 0 38.7156 0H34.2328C33.0916 0 32.5654 0.542143 32.2835 1.14871C32.2835 1.14871 30.0011 6.17414 26.7722 9.43171C25.7301 10.373 25.2483 10.6747 24.6794 10.6747C24.3993 10.6747 23.9636 10.373 23.9636 9.51343V1.49129C23.9636 0.460428 23.6442 0 22.6994 0H15.6506C14.9348 0 14.5094 0.480857 14.5094 0.928714C14.5094 1.90614 16.1238 2.13086 16.2912 4.88086V10.8476C16.2912 12.155 16.0333 12.3954 15.461 12.3954C13.9371 12.3954 10.2384 7.34957 8.04653 1.57457C7.60405 0.454143 7.17183 0.00157131 6.02208 0.00157131H1.53755C0.257967 0.00157131 0 0.543714 0 1.15029C0 2.222 1.52389 7.55071 7.08641 14.5907C10.7936 19.3961 16.0145 22 20.7638 22C23.6185 22 23.967 21.4217 23.967 20.427C23.967 15.8353 23.7091 15.4016 25.139 15.4016C25.8019 15.4016 26.9431 15.7033 29.6081 18.0211C32.6542 20.7696 33.1548 22 34.8597 22H39.3426C40.6204 22 41.2679 21.4217 40.8955 20.2809C40.043 17.8813 34.2823 12.9454 34.0226 12.6154Z"/>
</symbol></svg>